<svg width="24" height="24" viewBox="0 0 24 24" fill="none" xmlns="http://www.w3.org/2000/svg">
<g opacity="0.6">
<path d="M9.38783 11.5292C10.326 10.797 10.9308 9.65687 10.9308 8.37746C10.9308 6.17317 9.13753 4.37988 6.93334 4.37988H0.796118C0.356343 4.37988 0 4.73633 0 5.176V18.8239C0 19.2636 0.356343 19.62 0.796118 19.62H6.93334C9.36989 19.62 11.3521 17.6379 11.3521 15.2017C11.3521 13.6726 10.5714 12.3228 9.38783 11.5292ZM6.93334 5.97212C8.25957 5.97212 9.33858 7.05123 9.33858 8.37746C9.33858 9.70369 8.25957 10.7827 6.93334 10.7827H1.59224V5.97212H6.93334ZM6.93334 18.0278H1.59224V12.3749H6.93334C8.49193 12.3749 9.75988 13.643 9.75988 15.2016C9.75988 16.76 8.49193 18.0278 6.93334 18.0278Z" fill="white"/>
<path d="M18.1697 7.96045C14.9551 7.96045 12.3398 10.5756 12.3398 13.7903C12.3398 17.0049 14.9551 19.6201 18.1697 19.6201C19.7269 19.6201 21.1909 19.0137 22.2921 17.9125C22.6031 17.6016 22.6031 17.0976 22.2922 16.7866C21.9813 16.4757 21.4772 16.4757 21.1663 16.7866C20.3657 17.587 19.3015 18.0278 18.1697 18.0278C16.1053 18.0278 14.3818 16.5436 14.0082 14.5864H23.2035C23.6432 14.5864 23.9996 14.2299 23.9996 13.7903C23.9996 10.5756 21.3843 7.96045 18.1697 7.96045ZM18.1697 9.55269C20.234 9.55269 21.9575 11.0369 22.3312 12.9941H14.0082C14.3818 11.0369 16.1053 9.55269 18.1697 9.55269Z" fill="white"/>
<path d="M14.5881 6.39326H21.3278C21.7676 6.39326 22.124 6.03681 22.124 5.59714C22.124 5.15747 21.7676 4.80103 21.3278 4.80103H14.5881C14.1483 4.80103 13.792 5.15747 13.792 5.59714C13.792 6.03681 14.1483 6.39326 14.5881 6.39326Z" fill="white"/>
</g>
</svg>
