<svg width="24" height="24" viewBox="0 0 24 24" fill="none" xmlns="http://www.w3.org/2000/svg">
<path d="M18.5 4.79004C15.9 9.34004 10.89 11.95 5.67 11.48L2.5 11.19M5.5 19.37C8.1 14.82 13.11 12.21 18.33 12.68L21.5 12.97" stroke="url(#paint0_linear_1433_246)" stroke-width="1.5" stroke-miterlimit="10" stroke-linecap="round" stroke-linejoin="round"/>
<path d="M12 22C17.523 22 22 17.523 22 12C22 6.477 17.523 2 12 2C6.477 2 2 6.477 2 12C2 17.523 6.477 22 12 22Z" stroke="url(#paint1_linear_1433_246)" stroke-width="1.5" stroke-miterlimit="10" stroke-linecap="round" stroke-linejoin="round"/>
<path d="M7.62988 3L10.8099 6.95C12.9399 9.59 14.4499 12.66 15.2499 15.95L16.4599 20.94" stroke="url(#paint2_linear_1433_246)" stroke-width="1.5" stroke-miterlimit="10" stroke-linecap="round" stroke-linejoin="round"/>
<defs>
<linearGradient id="paint0_linear_1433_246" x1="2.84103" y1="12.08" x2="21.5" y2="12.08" gradientUnits="userSpaceOnUse">
<stop stop-color="#ADE3FD"/>
<stop offset="0.338542" stop-color="#C199FF"/>
<stop offset="0.692708" stop-color="#E698C3"/>
<stop offset="1" stop-color="#FF9A9A"/>
</linearGradient>
<linearGradient id="paint1_linear_1433_246" x1="2.35897" y1="12" x2="22" y2="12" gradientUnits="userSpaceOnUse">
<stop stop-color="#ADE3FD"/>
<stop offset="0.338542" stop-color="#C199FF"/>
<stop offset="0.692708" stop-color="#E698C3"/>
<stop offset="1" stop-color="#FF9A9A"/>
</linearGradient>
<linearGradient id="paint2_linear_1433_246" x1="7.78837" y1="11.97" x2="16.4599" y2="11.97" gradientUnits="userSpaceOnUse">
<stop stop-color="#ADE3FD"/>
<stop offset="0.338542" stop-color="#C199FF"/>
<stop offset="0.692708" stop-color="#E698C3"/>
<stop offset="1" stop-color="#FF9A9A"/>
</linearGradient>
</defs>
</svg>
