<svg width="24" height="24" viewBox="0 0 24 24" fill="none" xmlns="http://www.w3.org/2000/svg">
<path d="M19.15 4.06909C16.29 9.07409 10.779 11.9451 5.03705 11.4281L1.55005 11.1091M4.85005 20.1071C7.71005 15.1021 13.221 12.2311 18.963 12.7481L22.45 13.0671" stroke="white" stroke-width="1.5" stroke-miterlimit="10" stroke-linecap="round" stroke-linejoin="round"/>
<path d="M12 23C18.0753 23 23 18.0753 23 12C23 5.9247 18.0753 1 12 1C5.9247 1 1 5.9247 1 12C1 18.0753 5.9247 23 12 23Z" stroke="white" stroke-width="1.5" stroke-miterlimit="10" stroke-linecap="round" stroke-linejoin="round"/>
<path d="M7.19299 2.09998L10.691 6.44498C13.034 9.34898 14.695 12.726 15.575 16.345L16.906 21.834" stroke="white" stroke-width="1.5" stroke-miterlimit="10" stroke-linecap="round" stroke-linejoin="round"/>
</svg>
