<svg width="22" height="23" viewBox="0 0 22 23" fill="none" xmlns="http://www.w3.org/2000/svg">
<path d="M5.73911 22.277H0V7.12158H5.73911V22.277ZM0.956461 21.2993H4.78265V8.0993H0.956461V21.2993Z" fill="white"/>
<path d="M22 22.277H16.2609V13.966C16.2609 13.156 15.6185 12.4993 14.8261 12.4993C14.0336 12.4993 13.3913 13.156 13.3913 13.966V22.277H7.65222V7.12158H13.3913V8.10539C14.2576 7.46515 15.2995 7.12087 16.3684 7.12158C19.4711 7.12158 22 9.69434 22 12.8599V22.277ZM17.2174 21.2993H21.0434V12.8599C21.0369 10.2263 18.9448 8.0959 16.3684 8.0993C15.1908 8.0993 14.0847 8.60651 13.2598 9.52318L12.4347 10.4459V8.0993H8.60868V21.2993H12.4347V13.966C12.4347 12.6159 13.5054 11.5216 14.8261 11.5216C16.1467 11.5216 17.2174 12.6159 17.2174 13.966V21.2993Z" fill="white"/>
<path d="M2.86956 6.14377C1.28468 6.14377 0 4.83054 0 3.21044C0 1.59051 1.28468 0.2771 2.86956 0.2771C4.45443 0.2771 5.73911 1.59051 5.73911 3.21044C5.73579 4.82911 4.45303 6.14055 2.86956 6.14377ZM2.86956 1.255C1.81309 1.255 0.956461 2.13049 0.956461 3.21044C0.956461 4.29057 1.81309 5.16605 2.86956 5.16605C3.92602 5.16605 4.78265 4.29057 4.78265 3.21044C4.78265 2.13049 3.92602 1.255 2.86956 1.255Z" fill="white"/>
</svg>
